<?xml version="1.0" encoding="UTF-8"?>
<svg id="Camada_2" data-name="Camada 2" xmlns="http://www.w3.org/2000/svg" xmlns:xlink="http://www.w3.org/1999/xlink" viewBox="0 0 1518.08 295.55">
  <defs>
    <style>
      .cls-1 {
        fill: url(#Gradiente_sem_nome_4);
      }

      .cls-2 {
        fill: #9147ff;
      }

      .cls-3 {
        fill: #6435e7;
      }

      .cls-4 {
        fill: #101010;
      }
    </style>
    <linearGradient id="Gradiente_sem_nome_4" data-name="Gradiente sem nome 4" x1="133.53" y1="147.78" x2="235.91" y2="147.78" gradientUnits="userSpaceOnUse">
      <stop offset="0" stop-color="#6435e7"/>
      <stop offset=".52" stop-color="#7b3ef3"/>
      <stop offset="1" stop-color="#9147ff"/>
    </linearGradient>
  </defs>
  <g id="Camada_1-2" data-name="Camada 1">
    <g>
      <g>
        <g>
          <g>
            <path class="cls-3" d="M357.19,67.76L221.67,0v73.89l147.78,73.89v-60.19c0-8.4-4.74-16.07-12.25-19.82Z"/>
            <path class="cls-2" d="M357.19,227.79l-135.53,67.76v-73.89s147.78-73.89,147.78-73.89v60.19c0,8.4-4.74,16.07-12.25,19.82Z"/>
          </g>
          <g>
            <path class="cls-2" d="M12.25,227.79l135.53,67.76v-73.89L0,147.78v60.19C0,216.36,4.74,224.04,12.25,227.79Z"/>
            <path class="cls-3" d="M12.25,67.76L147.78,0v73.89S0,147.78,0,147.78v-60.19c0-8.4,4.74-16.07,12.25-19.82Z"/>
          </g>
        </g>
        <circle class="cls-1" cx="184.72" cy="147.78" r="51.19"/>
      </g>
      <g>
        <path d="M635.77,56.52c-6.25,0-11.4-1.65-15.44-4.96-4.05-3.31-6.07-7.9-6.07-13.78s2.02-10.75,6.07-14.06c4.04-3.31,9.19-4.96,15.44-4.96s11.67,1.65,15.71,4.96c4.04,3.31,6.07,8,6.07,14.06s-2.02,10.48-6.07,13.78c-4.05,3.31-9.28,4.96-15.71,4.96ZM615.64,221.67V73.89h40.53v147.78h-40.53Z"/>
        <path d="M681.26,221.67v-28.95l75.27-86.29h-70.86v-32.53h122.69v28.4l-75.27,86.85h78.3v32.53h-130.13Z"/>
        <path d="M888.32,224.15c-9.01,0-17.19-1.7-24.54-5.1-7.35-3.4-13.69-8.36-19.02-14.89-5.33-6.52-9.42-14.56-12.27-24.12-2.85-9.56-4.27-20.31-4.27-32.26,0-16.17,2.52-30,7.58-41.49,5.05-11.48,12.08-20.22,21.09-26.19,9-5.97,19.48-8.96,31.43-8.96,7.53,0,14.34,1.15,20.4,3.45,6.07,2.3,11.3,5.51,15.71,9.65,4.41,4.14,7.62,8.96,9.65,14.47h2.21l1.65-24.81h38.32v147.78h-38.32l-1.65-25.09h-2.21c-2.94,8.27-8.5,14.94-16.68,19.99-8.18,5.06-17.88,7.58-29.09,7.58ZM902.93,191.34c7.35,0,13.46-1.56,18.33-4.69,4.87-3.12,8.5-7.44,10.89-12.96,2.39-5.51,3.58-11.76,3.58-18.75v-14.61c0-7.17-1.24-13.46-3.72-18.89-2.48-5.42-6.16-9.69-11.03-12.82-4.87-3.12-10.52-4.69-16.96-4.69-7.72,0-14.11,1.75-19.16,5.24-5.06,3.49-8.87,8.5-11.44,15.03-2.58,6.53-3.86,14.38-3.86,23.57s1.19,16.54,3.58,23.16c2.39,6.62,6.07,11.67,11.03,15.16,4.96,3.49,11.21,5.24,18.75,5.24Z"/>
        <path d="M1011,221.67V73.89h38.87l1.65,26.74h1.65c4.04-9.93,10.29-17.32,18.75-22.19,8.45-4.87,17.92-7.31,28.4-7.31,7.35,0,14.2,1.15,20.54,3.45,6.34,2.3,11.85,5.84,16.54,10.61,4.69,4.78,8.36,11.08,11.03,18.89,2.66,7.81,4,17.23,4,28.26v89.33h-40.53v-80.51c0-8.27-.97-15.16-2.9-20.68-1.93-5.51-4.92-9.6-8.96-12.27-4.04-2.66-9.37-4-15.99-4-6.99,0-12.87,1.65-17.64,4.96-4.78,3.31-8.46,7.63-11.03,12.96-2.58,5.33-3.86,11.12-3.86,17.37v82.16h-40.53Z"/>
        <path d="M1234.87,221.67c-12.68,0-22.06-2.99-28.12-8.96-6.07-5.97-9.1-15.48-9.1-28.54v-77.75h-26.47v-32.53h26.47v-40.25l40.53-3.86v44.11h29.78v32.53h-29.78v70.3c0,4.6,1.1,7.72,3.31,9.37s5.33,2.48,9.37,2.48h17.09v33.08h-33.08Z"/>
        <path d="M1345.15,224.15c-11.21,0-20.77-2.21-28.67-6.62-7.9-4.41-13.88-10.98-17.92-19.71-4.04-8.73-6.07-19.34-6.07-31.84v-92.08h40.53v81.33c0,7.72.97,14.25,2.9,19.57,1.93,5.33,4.96,9.42,9.1,12.27,4.14,2.85,9.51,4.27,16.13,4.27s12.59-1.65,17.37-4.96c4.78-3.31,8.45-7.67,11.03-13.1,2.57-5.42,3.86-11.35,3.86-17.78v-81.61h40.53v147.78h-38.87l-1.65-27.02h-1.65c-3.68,9.56-9.7,16.87-18.06,21.92-8.37,5.06-17.88,7.58-28.53,7.58Z"/>
        <path d="M493.78,221.67l-50.45-147.78h43.56l22.88,84.64,8.27,32.26h1.65l8.27-32.26,22.88-84.64h43.84l-50.45,147.78h-50.45Z"/>
      </g>
      <g>
        <path class="cls-4" d="M1476.75,208.18v-28.44h11.98c5.73,0,9.73,2.96,9.73,8.49v.64c0,4.49-2.6,7.25-6.69,8.13l7.29,11.18h-5.33l-6.89-10.82h-5.49v10.82h-4.61ZM1481.35,193.44h7.01c3.2,0,5.33-1.44,5.33-4.57v-.64c0-3.12-2.12-4.57-5.33-4.57h-7.01v9.77Z"/>
        <path class="cls-4" d="M1487.9,224.15c-16.64,0-30.18-13.54-30.18-30.18s13.54-30.18,30.18-30.18,30.18,13.54,30.18,30.18-13.54,30.18-30.18,30.18ZM1487.9,169.11c-13.7,0-24.85,11.15-24.85,24.85s11.15,24.85,24.85,24.85,24.85-11.15,24.85-24.85-11.15-24.85-24.85-24.85Z"/>
      </g>
    </g>
  </g>
</svg>