<svg xmlns="http://www.w3.org/2000/svg" viewBox="0 0 64 64"><rect width="64" height="64" rx="14" fill="#101010"/><g transform="translate(32 32) scale(0.1) translate(-184.72 -147.78)"><path d="M357.19,67.76L221.67,0v73.89l147.78,73.89v-60.19c0-8.4-4.74-16.07-12.25-19.82Z" fill="#6435e7"/><path d="M357.19,227.79l-135.53,67.76v-73.89s147.78-73.89,147.78-73.89v60.19c0,8.4-4.74,16.07-12.25,19.82Z" fill="#9147ff"/><path d="M12.25,227.79l135.53,67.76v-73.89L0,147.78v60.19C0,216.36,4.74,224.04,12.25,227.79Z" fill="#9147ff"/><path d="M12.25,67.76L147.78,0v73.89S0,147.78,0,147.78v-60.19c0-8.4,4.74-16.07,12.25-19.82Z" fill="#6435e7"/><circle cx="184.72" cy="147.78" r="51.19" fill="#9147ff"/></g></svg>
